<svg xmlns="http://www.w3.org/2000/svg" width="83" height="83" viewBox="0 0 83 83"><defs><clipPath id="ayg5a"><path fill="#fff" d="M0 10C0 4.477 4.477 0 10 0h63c5.523 0 10 4.477 10 10v63c0 5.523-4.477 10-10 10H10C4.477 83 0 78.523 0 73z"/></clipPath></defs><g><g><path fill="#fff" d="M0 10C0 4.477 4.477 0 10 0h63c5.523 0 10 4.477 10 10v63c0 5.523-4.477 10-10 10H10C4.477 83 0 78.523 0 73z"/><path fill="none" stroke="#e2e4e8" stroke-miterlimit="20" stroke-width="2" d="M0 10C0 4.477 4.477 0 10 0h63c5.523 0 10 4.477 10 10v63c0 5.523-4.477 10-10 10H10C4.477 83 0 78.523 0 73z" clip-path="url(&quot;#ayg5a&quot;)"/></g><g><g opacity=".2"><path fill="#258aff" d="M51.387 41.997c0 5.178-4.212 9.39-9.39 9.39-5.179 0-9.391-4.212-9.391-9.39 0-5.179 4.212-9.391 9.39-9.391 5.179 0 9.391 4.212 9.391 9.39zm1.566 0c0-6.042-4.915-10.957-10.956-10.957-6.042 0-10.957 4.915-10.957 10.957 0 6.041 4.915 10.956 10.957 10.956 6.041 0 10.956-4.915 10.956-10.956z"/></g><g opacity=".5"><path fill="#258aff" d="M42 45.13a3.13 3.13 0 1 0 0-6.26 3.13 3.13 0 0 0 0 6.26z"/></g><g><path fill="#258aff" d="M58.335 34.433a6.27 6.27 0 0 1-1.357.803A16.41 16.41 0 0 1 58.435 42c0 9.063-7.372 16.435-16.435 16.435-9.063 0-16.435-7.372-16.435-16.435 0-9.063 7.372-16.435 16.435-16.435 3.148 0 6.221.923 8.85 2.603a3.875 3.875 0 0 0-.241 1.31 3.917 3.917 0 0 0 3.913 3.913 3.917 3.917 0 0 0 3.913-3.913 3.917 3.917 0 0 0-3.913-3.913 3.893 3.893 0 0 0-2.863 1.265A18.025 18.025 0 0 0 42 24c-9.925 0-18 8.075-18 18s8.075 18 18 18 18-8.075 18-18c0-2.654-.581-5.228-1.665-7.567z"/></g></g></g></svg>