<svg xmlns="http://www.w3.org/2000/svg" width="239" height="75" viewBox="0 0 239 75"><g><g><g><path fill="#0f53fa" d="M0 5a5 5 0 0 1 5-5h229a5 5 0 0 1 5 5v65a5 5 0 0 1-5 5H5a5 5 0 0 1-5-5z"/></g><g><g><text dominant-baseline="text-before-edge" style="line-height:34px;font-kerning:normal" fill="#fff" font-family="'Circular Std Bold','CircularStd-Bold'" font-size="24" transform="translate(81 31)"><tspan style="line-height:34px;font-kerning:normal">App Store</tspan></text></g></g><g><g><text dominant-baseline="text-before-edge" style="line-height:28px;font-kerning:normal" fill="#e9f7fe" font-family="'Circular Std Book','CircularStd-Book'" font-size="16" transform="translate(81 7)"><tspan style="line-height:28px;font-kerning:normal">Download on the</tspan></text></g></g><g><g><path fill="#fff" d="M55 45.306c-.766 1.7-1.131 2.458-2.117 3.96-1.374 2.095-3.312 4.706-5.714 4.729-2.133.02-2.681-1.392-5.578-1.375-2.896.017-3.5 1.4-5.633 1.38-2.401-.022-4.236-2.38-5.611-4.477-3.844-5.863-4.246-12.743-1.875-16.4 1.684-2.601 4.343-4.12 6.842-4.12 2.545 0 4.145 1.397 6.25 1.397 2.04 0 3.284-1.4 6.227-1.4 2.224 0 4.58 1.213 6.26 3.31-5.503 3.02-4.608 10.891.949 12.996z"/></g><g><path fill="#fff" d="M46.292 25.397c1.11-1.4 1.95-3.376 1.645-5.397-1.813.122-3.93 1.256-5.168 2.734-1.123 1.34-2.05 3.33-1.69 5.264 1.977.06 4.024-1.101 5.213-2.601z"/></g></g></g></g></svg>