<svg xmlns="http://www.w3.org/2000/svg" width="183" height="183" viewBox="0 0 183 183"><defs><mask id="t23lb" width="2" height="2" x="-1" y="-1"><path fill="#fff" d="M43 11h97v97H43z"/><path d="M43 21c0-5.523 4.477-10 10-10h77c5.523 0 10 4.477 10 10v77c0 5.523-4.477 10-10 10H53c-5.523 0-10-4.477-10-10z"/></mask><filter id="t23la" width="225" height="257" x="-21" y="-53" filterUnits="userSpaceOnUse"><feOffset dy="32" in="SourceGraphic" result="FeOffset1256Out"/><feGaussianBlur in="FeOffset1256Out" result="FeGaussianBlur1257Out" stdDeviation="21.6 21.6"/></filter></defs><g><g><g><g filter="url(#t23la)"><path fill="none" d="M43 21c0-5.523 4.477-10 10-10h77c5.523 0 10 4.477 10 10v77c0 5.523-4.477 10-10 10H53c-5.523 0-10-4.477-10-10z" mask="url(&quot;#t23lb&quot;)"/><path fill="#258aff" fill-opacity=".22" d="M43 21c0-5.523 4.477-10 10-10h77c5.523 0 10 4.477 10 10v77c0 5.523-4.477 10-10 10H53c-5.523 0-10-4.477-10-10z"/></g><path fill="#14b4f1" d="M43 21c0-5.523 4.477-10 10-10h77c5.523 0 10 4.477 10 10v77c0 5.523-4.477 10-10 10H53c-5.523 0-10-4.477-10-10z"/></g><g><g><path fill="#fff" d="M84 50c-.552 0-1-.298-1-.667v-4.666c0-.369.448-.667 1-.667s1 .298 1 .667v4.666c0 .369-.448.667-1 .667z"/></g><g><path fill="#fff" d="M100 50c-.552 0-1-.298-1-.667v-4.666c0-.369.448-.667 1-.667s1 .298 1 .667v4.666c0 .369-.448.667-1 .667z"/></g><g opacity=".5"><path fill="#fff" d="M94.49 71.632H78.183c-.402 0-.727-.307-.727-.685V55.211c0-.378.325-.685.727-.685h27.636c.402 0 .727.307.727.685v8.064c.532.328 1.02.713 1.455 1.15V48.367c0-.755-.651-1.368-1.455-1.368h-4.363v2.737c0 1.133-.977 2.052-2.182 2.052s-2.182-.919-2.182-2.052V47H86.182v2.737c0 1.133-.977 2.052-2.182 2.052s-2.182-.919-2.182-2.052V47h-4.363C76.65 47 76 47.613 76 48.368v23.264c0 .755.651 1.368 1.455 1.368h17.607a7.196 7.196 0 0 1-.571-1.368z"/></g><g><path fill="#fff" d="M106.612 66.823a.723.723 0 0 1 0 1.021l-5.05 5.056a.72.72 0 0 1-1.02 0l-2.164-2.167a.723.723 0 0 1 1.02-1.021l1.654 1.656 4.54-4.545a.72.72 0 0 1 1.02 0zM96 69.5a6.5 6.5 0 1 0 6.5-6.5 6.507 6.507 0 0 0-6.5 6.5z"/></g></g></g></g></svg>