<svg xmlns="http://www.w3.org/2000/svg" width="46" height="36" viewBox="0 0 46 36"><g><g><g><path fill="#fff" d="M10.631 32.841L0 22l3-3 8 5L34 0l3 2-23.35 30.653a2 2 0 0 1-3.019.188z"/></g><g opacity=".5"><path fill="#fff" d="M45 9h-5a1 1 0 0 1 0-2h5a1 1 0 0 1 0 2z"/></g><g opacity=".5"><path fill="#fff" d="M45 18H33a1 1 0 0 1 0-2h12a1 1 0 0 1 0 2z"/></g><g opacity=".5"><path fill="#fff" d="M45 27H26a1 1 0 0 1 0-2h19a1 1 0 0 1 0 2z"/></g><g opacity=".5"><path fill="#fff" d="M45 36H19a1 1 0 0 1 0-2h26a1 1 0 0 1 0 2z"/></g></g></g></svg>