<svg xmlns="http://www.w3.org/2000/svg" width="24" height="17" viewBox="0 0 24 17"><g><g><path fill="#959393" d="M2.625 15.445c-.203 0-.441-.141-.715-.423-.273-.281-.41-.526-.41-.736V3.236l10.008 8.227a.927.927 0 0 0 .234.145.67.67 0 0 0 .258.048.67.67 0 0 0 .258-.048.927.927 0 0 0 .234-.145L22.5 3.236v11.05c0 .21-.012.455-.035.736-.024.282-.137.423-.34.423zm19.5-13.9L12 9.876 1.898 1.57c.125-.016.25-.025.375-.025zm1.863-.036a.618.618 0 0 0-.058-.205c-.094-.435-.293-.76-.598-.978C23.027.109 22.625 0 22.125 0h-19.5c-.453 0-.895.085-1.324.254C.87.423.539.668.305.99a.178.178 0 0 0-.07.06.394.394 0 0 1-.047.06.881.881 0 0 0-.165.303.578.578 0 0 0 0 .326.22.22 0 0 0-.023.096v12.46c0 .644.281 1.256.844 1.836C1.406 16.71 2 17 2.625 17h19.5c.625 0 1.094-.29 1.406-.87.313-.579.469-1.19.469-1.835V1.835a.22.22 0 0 0-.023-.096.768.768 0 0 0 .011-.23z"/></g></g></svg>