<svg xmlns="http://www.w3.org/2000/svg" width="33" height="32" viewBox="0 0 33 32"><g><g><g><path fill="#fff" d="M8 6c-.552 0-1-.298-1-.667V.667C7 .298 7.448 0 8 0s1 .298 1 .667v4.666C9 5.702 8.552 6 8 6z"/></g><g><path fill="#fff" d="M24 6c-.552 0-1-.298-1-.667V.667C23 .298 23.448 0 24 0s1 .298 1 .667v4.666c0 .369-.448.667-1 .667z"/></g><g opacity=".5"><path fill="#fff" d="M18.49 27.632H2.183c-.402 0-.727-.307-.727-.685V11.211c0-.378.325-.685.727-.685h27.636c.402 0 .727.307.727.685v8.064c.532.328 1.02.713 1.455 1.15V4.367C32 3.613 31.349 3 30.545 3h-4.363v2.737c0 1.133-.977 2.052-2.182 2.052s-2.182-.919-2.182-2.052V3H10.182v2.737c0 1.133-.977 2.052-2.182 2.052S5.818 6.87 5.818 5.737V3H1.455C.65 3 0 3.613 0 4.368v23.264C0 28.387.651 29 1.455 29h17.607a7.196 7.196 0 0 1-.571-1.368z"/></g><g><path fill="#fff" d="M30.612 22.823a.723.723 0 0 1 0 1.02l-5.05 5.056a.72.72 0 0 1-1.02 0l-2.164-2.166a.723.723 0 0 1 1.02-1.021l1.654 1.656 4.54-4.545a.72.72 0 0 1 1.02 0zM20 25.5a6.5 6.5 0 1 0 6.5-6.5 6.507 6.507 0 0 0-6.5 6.5z"/></g></g></g></svg>