<svg xmlns="http://www.w3.org/2000/svg" width="183" height="183" viewBox="0 0 183 183"><defs><mask id="u5npb" width="2" height="2" x="-1" y="-1"><path fill="#fff" d="M43 11h97v97H43z"/><path d="M43 21c0-5.523 4.477-10 10-10h77c5.523 0 10 4.477 10 10v77c0 5.523-4.477 10-10 10H53c-5.523 0-10-4.477-10-10z"/></mask><filter id="u5npa" width="225" height="257" x="-21" y="-53" filterUnits="userSpaceOnUse"><feOffset dy="32" in="SourceGraphic" result="FeOffset1334Out"/><feGaussianBlur in="FeOffset1334Out" result="FeGaussianBlur1335Out" stdDeviation="21.6 21.6"/></filter></defs><g><g><g><g filter="url(#u5npa)"><path fill="none" d="M43 21c0-5.523 4.477-10 10-10h77c5.523 0 10 4.477 10 10v77c0 5.523-4.477 10-10 10H53c-5.523 0-10-4.477-10-10z" mask="url(&quot;#u5npb&quot;)"/><path fill="#258aff" fill-opacity=".22" d="M43 21c0-5.523 4.477-10 10-10h77c5.523 0 10 4.477 10 10v77c0 5.523-4.477 10-10 10H53c-5.523 0-10-4.477-10-10z"/></g><path fill="#14b4f1" d="M43 21c0-5.523 4.477-10 10-10h77c5.523 0 10 4.477 10 10v77c0 5.523-4.477 10-10 10H53c-5.523 0-10-4.477-10-10z"/></g><g><g><path fill="#fff" d="M79.631 74.841L69 64l3-3 8 5 23-24 3 2-23.35 30.653a2 2 0 0 1-3.019.188z"/></g><g opacity=".5"><path fill="#fff" d="M114 51h-5a1 1 0 0 1 0-2h5a1 1 0 0 1 0 2z"/></g><g opacity=".5"><path fill="#fff" d="M114 60h-12a1 1 0 0 1 0-2h12a1 1 0 0 1 0 2z"/></g><g opacity=".5"><path fill="#fff" d="M114 69H95a1 1 0 0 1 0-2h19a1 1 0 0 1 0 2z"/></g><g opacity=".5"><path fill="#fff" d="M114 78H88a1 1 0 0 1 0-2h26a1 1 0 0 1 0 2z"/></g></g></g></g></svg>