<svg xmlns="http://www.w3.org/2000/svg" width="83" height="83" viewBox="0 0 83 83"><defs><clipPath id="l3t0a"><path fill="#fff" d="M0 10C0 4.477 4.477 0 10 0h63c5.523 0 10 4.477 10 10v63c0 5.523-4.477 10-10 10H10C4.477 83 0 78.523 0 73z"/></clipPath></defs><g><g><g><path fill="#fff" d="M0 10C0 4.477 4.477 0 10 0h63c5.523 0 10 4.477 10 10v63c0 5.523-4.477 10-10 10H10C4.477 83 0 78.523 0 73z"/><path fill="none" stroke="#e2e4e8" stroke-miterlimit="20" stroke-width="2" d="M0 10C0 4.477 4.477 0 10 0h63c5.523 0 10 4.477 10 10v63c0 5.523-4.477 10-10 10H10C4.477 83 0 78.523 0 73z" clip-path="url(&quot;#l3t0a&quot;)"/></g><g><g opacity=".5"><path fill="#258aff" d="M32.04 28.126l1.107 1.107a12.522 12.522 0 0 1 17.708 0l1.107-1.107a14.087 14.087 0 0 0-19.922 0z"/></g><g opacity=".5"><path fill="#258aff" d="M42.004 30.26a7.801 7.801 0 0 0-5.534 2.292l1.107 1.107a6.26 6.26 0 0 1 8.854 0l1.107-1.107a7.801 7.801 0 0 0-5.534-2.292z"/></g><g><path fill="#258aff" d="M47.476 52.17v-2.566L45.664 49a.783.783 0 0 1-.47-1.053l2.282-5.267v-1.466a10.141 10.141 0 0 1 12.522-9.89v27.89h-6.26v-3.913h-3.131a3.13 3.13 0 0 1-3.13-3.13z"/></g><g><path fill="#258aff" d="M36.522 52.17v-2.566L38.334 49a.783.783 0 0 0 .47-1.052l-2.282-5.267v-1.466c0-5.619-4.555-10.174-10.174-10.174-.791.003-1.58.098-2.348.283v27.89h6.26v-3.912h3.131a3.13 3.13 0 0 0 3.13-3.13z"/></g><g opacity=".5"><path fill="#258aff" d="M41.995 39.65a1.565 1.565 0 1 0 0-3.13 1.565 1.565 0 0 0 0 3.13z"/></g></g></g></g></svg>