<svg xmlns="http://www.w3.org/2000/svg" width="108" height="16" viewBox="0 0 108 16"><g><g><g><g><path fill="#f5a623" d="M16.743 5.828l-5.327-.774L9.034.226a.377.377 0 0 0-.65 0L6 5.053l-5.329.775a.363.363 0 0 0-.202.619l3.856 3.758-.91 5.306a.363.363 0 0 0 .527.383l4.765-2.505 4.766 2.504a.363.363 0 0 0 .526-.383l-.91-5.305 3.856-3.758a.363.363 0 0 0-.201-.62z"/></g></g><g><g><path fill="#f5a623" d="M39.393 5.828l-5.327-.774L31.684.226a.377.377 0 0 0-.65 0L28.65 5.053l-5.329.775a.363.363 0 0 0-.202.619l3.856 3.758-.91 5.306a.363.363 0 0 0 .527.383l4.765-2.505 4.766 2.504a.363.363 0 0 0 .526-.383l-.91-5.305 3.856-3.758a.363.363 0 0 0-.201-.62z"/></g></g><g><g><path fill="#f5a623" d="M62.033 5.828l-5.327-.774L54.324.226a.377.377 0 0 0-.65 0L51.29 5.053l-5.329.775a.363.363 0 0 0-.202.619l3.856 3.758-.91 5.306a.363.363 0 0 0 .527.383l4.765-2.505 4.766 2.504a.363.363 0 0 0 .526-.383l-.91-5.305 3.856-3.758a.363.363 0 0 0-.201-.62z"/></g></g><g><g><path fill="#f5a623" d="M84.683 5.828l-5.327-.774L76.974.226a.377.377 0 0 0-.65 0L73.94 5.053l-5.329.775a.363.363 0 0 0-.202.619l3.856 3.758-.91 5.306a.363.363 0 0 0 .527.383l4.765-2.505 4.766 2.504a.363.363 0 0 0 .526-.383l-.91-5.305 3.856-3.758a.363.363 0 0 0-.201-.62z"/></g></g><g><g><path fill="#f5a623" d="M107.323 5.828l-5.327-.774L99.614.226a.377.377 0 0 0-.65 0L96.58 5.053l-5.329.775a.363.363 0 0 0-.202.619l3.856 3.758-.91 5.306a.363.363 0 0 0 .527.383l4.765-2.505 4.766 2.504a.363.363 0 0 0 .526-.383l-.91-5.305 3.856-3.758a.363.363 0 0 0-.201-.62z"/></g></g></g></g></svg>