<svg xmlns="http://www.w3.org/2000/svg" width="83" height="83" viewBox="0 0 83 83"><defs><clipPath id="6km0a"><path fill="#fff" d="M0 10C0 4.477 4.477 0 10 0h63c5.523 0 10 4.477 10 10v63c0 5.523-4.477 10-10 10H10C4.477 83 0 78.523 0 73z"/></clipPath></defs><g><g><g><path fill="#fff" d="M0 10C0 4.477 4.477 0 10 0h63c5.523 0 10 4.477 10 10v63c0 5.523-4.477 10-10 10H10C4.477 83 0 78.523 0 73z"/><path fill="none" stroke="#e2e4e8" stroke-miterlimit="20" stroke-width="2" d="M0 10C0 4.477 4.477 0 10 0h63c5.523 0 10 4.477 10 10v63c0 5.523-4.477 10-10 10H10C4.477 83 0 78.523 0 73z" clip-path="url(&quot;#6km0a&quot;)"/></g><g><g opacity=".5"><path fill="#258aff" d="M58.067 45.95a4.228 4.228 0 0 0-6.68.56 4.229 4.229 0 0 0-6.684-.556c-1.595 1.74-1.413 4.475.242 6.157l5.883 5.98a.783.783 0 0 0 1.116 0l5.884-5.98c1.659-1.684 1.839-4.422.24-6.161z"/></g><g><path fill="#258aff" d="M38.089 45.345h-7.826a.782.782 0 1 1 0-1.565h7.826a.782.782 0 1 1 0 1.565z"/></g><g><path fill="#258aff" d="M58.425 32.033h-32.86v-3.905c0-.862.702-1.563 1.565-1.563h29.73c.863 0 1.565.7 1.565 1.563zM56.87 25H27.13A3.134 3.134 0 0 0 24 28.13v20.348a3.134 3.134 0 0 0 3.13 3.13h12.522v-1.565H27.13a1.567 1.567 0 0 1-1.565-1.565V38.304h32.87v3.913H60V28.13A3.134 3.134 0 0 0 56.87 25z"/></g></g></g></g></svg>