<svg xmlns="http://www.w3.org/2000/svg" width="183" height="183" viewBox="0 0 183 183"><defs><mask id="6sazb" width="2" height="2" x="-1" y="-1"><path fill="#fff" d="M43 11h97v97H43z"/><path d="M43 21c0-5.523 4.477-10 10-10h77c5.523 0 10 4.477 10 10v77c0 5.523-4.477 10-10 10H53c-5.523 0-10-4.477-10-10z"/></mask><filter id="6saza" width="225" height="257" x="-21" y="-53" filterUnits="userSpaceOnUse"><feOffset dy="32" in="SourceGraphic" result="FeOffset1300Out"/><feGaussianBlur in="FeOffset1300Out" result="FeGaussianBlur1301Out" stdDeviation="21.6 21.6"/></filter></defs><g><g><g><g filter="url(#6saza)"><path fill="none" d="M43 21c0-5.523 4.477-10 10-10h77c5.523 0 10 4.477 10 10v77c0 5.523-4.477 10-10 10H53c-5.523 0-10-4.477-10-10z" mask="url(&quot;#6sazb&quot;)"/><path fill="#258aff" fill-opacity=".22" d="M43 21c0-5.523 4.477-10 10-10h77c5.523 0 10 4.477 10 10v77c0 5.523-4.477 10-10 10H53c-5.523 0-10-4.477-10-10z"/></g><path fill="#14b4f1" d="M43 21c0-5.523 4.477-10 10-10h77c5.523 0 10 4.477 10 10v77c0 5.523-4.477 10-10 10H53c-5.523 0-10-4.477-10-10z"/></g><g><g opacity=".5"><path fill="#fff" d="M101.253 66.454c-7.053-1.956-13.696-1.915-20.522-.018-3.429.951-5.731 3.845-5.731 7.2v1.863c0 .829.715 1.501 1.6 1.501h28.8c.885 0 1.6-.672 1.6-1.5v-1.844c0-3.354-2.309-6.25-5.747-7.202z"/></g><g opacity=".5"><path fill="#fff" d="M92 61c5.069 0 9-5.79 9-10.77 0-5.09-4.037-9.23-9-9.23s-9 4.14-9 9.23C83 55.21 86.932 61 92 61z"/></g></g></g></g></svg>